<?xml version="1.0" standalone="no"?>
<!DOCTYPE svg PUBLIC "-//W3C//DTD SVG 20010904//EN"
 "http://www.w3.org/TR/2001/REC-SVG-20010904/DTD/svg10.dtd">
<svg version="1.0" xmlns="http://www.w3.org/2000/svg"
 width="1200.000000pt" height="1200.000000pt" viewBox="0 0 1200.000000 1200.000000"
 preserveAspectRatio="xMidYMid meet">

<g transform="translate(0.000000,1200.000000) scale(0.100000,-0.100000)"
fill="#000000" stroke="none">
<path d="M3590 9589 c-512 -57 -959 -385 -1161 -851 -134 -309 -157 -660 -65
-979 174 -600 724 -1023 1343 -1032 l133 -2 0 -1442 0 -1443 2160 0 2160 0 0
2160 0 2160 -1489 0 -1488 0 -6 98 c-28 491 -340 963 -783 1185 -246 123 -537
176 -804 146z m-86 -791 c8 -29 65 -246 126 -483 62 -236 113 -431 115 -433 3
-3 13 33 140 523 53 204 101 387 106 408 l10 37 144 0 c109 0 145 -3 145 -12
0 -7 -92 -314 -203 -683 l-203 -670 -138 0 -138 0 -204 675 c-112 371 -204
678 -204 682 0 4 65 8 145 8 l144 0 15 -52z m4536 -2798 l0 -2040 -2040 0
-2040 0 0 1388 0 1388 98 22 c338 77 628 265 837 543 149 199 233 409 280 702
l6 37 1429 0 1430 0 0 -2040z"/>
<path d="M6570 2665 l0 -575 105 0 105 0 0 126 0 126 43 39 c23 21 45 38 48
39 3 0 57 -74 119 -165 l114 -165 123 0 c68 0 123 3 123 6 0 3 -73 106 -163
227 -90 122 -166 227 -170 233 -5 9 137 175 266 312 l31 32 -126 0 -126 0
-138 -153 -139 -153 -3 323 -2 323 -105 0 -105 0 0 -575z"/>
<path d="M2814 3158 c3 -13 76 -258 163 -545 l158 -523 107 0 107 0 11 38 c6
20 79 264 163 542 l154 505 -110 3 c-61 1 -114 -1 -118 -5 -3 -4 -51 -178
-105 -386 -53 -208 -101 -374 -105 -370 -4 4 -51 178 -105 386 l-97 377 -115
0 c-114 0 -114 0 -108 -22z"/>
<path d="M4074 2910 c-137 -27 -242 -133 -280 -280 -22 -89 -15 -243 15 -322
29 -74 106 -159 174 -193 141 -69 342 -40 446 64 84 84 116 189 109 355 -4 97
-8 112 -42 180 -78 158 -238 232 -422 196z m155 -175 c41 -21 79 -69 92 -118
15 -53 15 -189 0 -245 -42 -153 -231 -178 -303 -39 -27 52 -38 222 -18 284 35
109 141 164 229 118z"/>
<path d="M5921 2909 c-143 -28 -249 -139 -282 -297 -15 -72 -7 -232 15 -292
56 -155 181 -240 350 -241 177 -1 328 107 343 246 l6 45 -96 0 -95 0 -7 -30
c-9 -43 -65 -87 -120 -96 -71 -10 -128 16 -163 74 -26 45 -27 53 -27 177 0
120 2 133 25 174 44 77 130 102 210 61 45 -23 67 -51 76 -98 l7 -32 95 0 95 0
-6 54 c-18 181 -212 297 -426 255z"/>
<path d="M7765 2906 c-142 -34 -245 -138 -285 -285 -17 -64 -15 -209 4 -274
16 -56 64 -129 114 -173 15 -13 56 -39 92 -56 63 -32 68 -33 190 -33 115 0
130 2 182 27 64 30 124 73 137 97 7 12 -4 30 -41 70 l-49 54 -22 -21 c-57 -53
-179 -83 -255 -63 -51 14 -119 73 -139 118 -27 66 -41 63 262 63 l275 0 0 63
c0 79 -22 182 -50 238 -72 145 -244 217 -415 175z m175 -179 c48 -25 80 -75
80 -124 l0 -33 -171 0 -171 0 7 28 c31 126 148 186 255 129z"/>
<path d="M8917 2909 c-55 -13 -94 -36 -148 -86 l-48 -45 -7 61 -7 61 -93 0
-94 0 0 -405 0 -405 100 0 100 0 0 240 c0 191 3 247 14 269 22 41 80 88 123
100 45 13 141 13 203 1 25 -4 46 -7 48 -5 6 6 34 196 30 201 -8 8 -111 24
-147 23 -20 -1 -53 -5 -74 -10z"/>
<path d="M4732 2608 c5 -322 11 -357 68 -435 46 -62 115 -93 207 -93 90 0 128
15 193 76 l50 47 0 -34 c0 -78 2 -79 106 -79 l94 0 0 405 0 405 -105 0 -105 0
0 -286 0 -286 -33 -33 c-59 -59 -168 -69 -223 -22 -14 12 -29 40 -34 62 -5 22
-10 158 -10 303 l0 262 -106 0 -106 0 4 -292z"/>
</g>
</svg>
